<?xml version="1.0" encoding="UTF-8" standalone="no"?>
<svg
   aria-label="Twitter"
   role="img"
   viewBox="0 0 512 512"
   version="1.1"
   id="svg6"
   sodipodi:docname="twitterIconBlue.svg"
   inkscape:version="1.1.2 (b8e25be833, 2022-02-05)"
   xmlns:inkscape="http://www.inkscape.org/namespaces/inkscape"
   xmlns:sodipodi="http://sodipodi.sourceforge.net/DTD/sodipodi-0.dtd"
   xmlns="http://www.w3.org/2000/svg"
   xmlns:svg="http://www.w3.org/2000/svg">
  <defs
     id="defs10" />
  <sodipodi:namedview
     id="namedview8"
     pagecolor="#505050"
     bordercolor="#eeeeee"
     borderopacity="1"
     inkscape:pageshadow="0"
     inkscape:pageopacity="0"
     inkscape:pagecheckerboard="0"
     showgrid="false"
     inkscape:zoom="1.6074219"
     inkscape:cx="256"
     inkscape:cy="256.31106"
     inkscape:window-width="1920"
     inkscape:window-height="1009"
     inkscape:window-x="-8"
     inkscape:window-y="-8"
     inkscape:window-maximized="1"
     inkscape:current-layer="svg6" />
  <rect
     width="512"
     height="512"
     rx="15%"
     fill="#1da1f2"
     id="rect2"
     style="fill:#1aaad6;fill-opacity:1" />
  <path
     fill="#fff"
     d="M437 152a72 72 0 01-40 12a72 72 0 0032-40a72 72 0 01-45 17a72 72 0 00-122 65a200 200 0 01-145-74a72 72 0 0022 94a72 72 0 01-32-7a72 72 0 0056 69a72 72 0 01-32 1a72 72 0 0067 50a200 200 0 01-105 29a200 200 0 00309-179a200 200 0 0035-37"
     id="path4" />
</svg>
